<svg width="214" height="49" viewBox="0 0 214 49" fill="none" xmlns="http://www.w3.org/2000/svg">
<path d="M16.4243 48.64C14.0776 48.64 11.9656 48.2027 10.0883 47.328C8.23225 46.432 6.66425 45.1733 5.38425 43.552L7.40025 42.112L6.76025 48H0.168253V-3.8147e-06H7.30425V21.856L5.64025 20.736C6.94159 19.2 8.49892 17.9733 10.3123 17.056C12.1469 16.1387 14.1843 15.68 16.4243 15.68C19.4963 15.68 22.0883 16.4373 24.2003 17.952C26.3336 19.4667 27.9549 21.4827 29.0643 24C30.1736 26.496 30.7283 29.216 30.7283 32.16C30.7283 35.168 30.1523 37.92 29.0003 40.416C27.8483 42.912 26.2056 44.9067 24.0723 46.4C21.9389 47.8933 19.3896 48.64 16.4243 48.64ZM15.4323 42.624C17.1176 42.624 18.5576 42.176 19.7523 41.28C20.9469 40.3627 21.8536 39.1147 22.4723 37.536C23.1123 35.9573 23.4323 34.1653 23.4323 32.16C23.4323 30.112 23.1123 28.3093 22.4723 26.752C21.8536 25.1733 20.9469 23.936 19.7523 23.04C18.5576 22.144 17.1176 21.696 15.4323 21.696C13.6616 21.696 12.1469 22.1227 10.8883 22.976C9.62959 23.808 8.65892 25.0027 7.97625 26.56C7.29359 28.1173 6.95225 29.984 6.95225 32.16C6.95225 34.3787 7.29359 36.2667 7.97625 37.824C8.65892 39.3813 9.62959 40.576 10.8883 41.408C12.1469 42.2187 13.6616 42.624 15.4323 42.624ZM50.8098 48.64C47.3964 48.64 44.4844 47.8933 42.0738 46.4C39.6844 44.9067 37.8498 42.912 36.5698 40.416C35.3111 37.92 34.6818 35.168 34.6818 32.16C34.6818 29.152 35.3111 26.3893 36.5698 23.872C37.8498 21.3547 39.6844 19.3493 42.0738 17.856C44.4844 16.3413 47.3964 15.584 50.8098 15.584C54.2018 15.584 57.1031 16.3413 59.5138 17.856C61.9244 19.3493 63.7591 21.3547 65.0178 23.872C66.2978 26.3893 66.9378 29.152 66.9378 32.16C66.9378 35.168 66.2978 37.92 65.0178 40.416C63.7591 42.912 61.9244 44.9067 59.5138 46.4C57.1031 47.8933 54.2018 48.64 50.8098 48.64ZM50.8098 42.624C53.6258 42.624 55.7911 41.6747 57.3058 39.776C58.8418 37.856 59.6098 35.3173 59.6098 32.16C59.6098 28.96 58.8418 26.4 57.3058 24.48C55.7911 22.56 53.6258 21.6 50.8098 21.6C47.9938 21.6 45.8178 22.56 44.2818 24.48C42.7458 26.4 41.9778 28.96 41.9778 32.16C41.9778 35.3173 42.7458 37.856 44.2818 39.776C45.8178 41.6747 47.9938 42.624 50.8098 42.624ZM88.9118 48.64C86.5651 48.64 84.4531 48.2027 82.5758 47.328C80.7198 46.432 79.1518 45.1733 77.8718 43.552L79.8878 42.112L79.2478 48H72.6558V-3.8147e-06H79.7918V21.856L78.1278 20.736C79.4291 19.2 80.9864 17.9733 82.7998 17.056C84.6344 16.1387 86.6718 15.68 88.9118 15.68C91.9838 15.68 94.5758 16.4373 96.6878 17.952C98.8211 19.4667 100.442 21.4827 101.552 24C102.661 26.496 103.216 29.216 103.216 32.16C103.216 35.168 102.64 37.92 101.488 40.416C100.336 42.912 98.6931 44.9067 96.5598 46.4C94.4264 47.8933 91.8771 48.64 88.9118 48.64ZM87.9198 42.624C89.6051 42.624 91.0451 42.176 92.2398 41.28C93.4344 40.3627 94.3411 39.1147 94.9598 37.536C95.5998 35.9573 95.9198 34.1653 95.9198 32.16C95.9198 30.112 95.5998 28.3093 94.9598 26.752C94.3411 25.1733 93.4344 23.936 92.2398 23.04C91.0451 22.144 89.6051 21.696 87.9198 21.696C86.1491 21.696 84.6344 22.1227 83.3758 22.976C82.1171 23.808 81.1464 25.0027 80.4638 26.56C79.7811 28.1173 79.4398 29.984 79.4398 32.16C79.4398 34.3787 79.7811 36.2667 80.4638 37.824C81.1464 39.3813 82.1171 40.576 83.3758 41.408C84.6344 42.2187 86.1491 42.624 87.9198 42.624ZM118.081 48.64C115.735 48.64 113.687 48.3947 111.937 47.904C110.188 47.392 108.641 46.8053 107.297 46.144L108.001 39.776C109.281 40.608 110.743 41.3547 112.385 42.016C114.028 42.656 115.841 42.976 117.825 42.976C119.575 42.976 120.908 42.6987 121.825 42.144C122.743 41.568 123.201 40.6933 123.201 39.52C123.201 38.6027 122.935 37.856 122.401 37.28C121.868 36.6827 121.143 36.1813 120.225 35.776C119.329 35.3493 118.316 34.944 117.185 34.56C115.415 33.9627 113.815 33.2907 112.385 32.544C110.956 31.776 109.815 30.7947 108.961 29.6C108.129 28.4053 107.713 26.8587 107.713 24.96C107.713 23.2107 108.161 21.632 109.057 20.224C109.953 18.7947 111.276 17.664 113.025 16.832C114.775 16 116.951 15.584 119.553 15.584C121.601 15.584 123.372 15.808 124.865 16.256C126.38 16.704 127.745 17.2587 128.961 17.92L128.257 24.16C126.999 23.2427 125.687 22.4853 124.321 21.888C122.956 21.2693 121.409 20.96 119.681 20.96C118.145 20.96 116.929 21.2587 116.033 21.856C115.159 22.4533 114.721 23.3387 114.721 24.512C114.721 25.8347 115.276 26.8053 116.385 27.424C117.495 28.0427 119.223 28.7787 121.569 29.632C122.807 30.08 123.959 30.5707 125.025 31.104C126.092 31.6373 127.031 32.2667 127.841 32.992C128.652 33.7173 129.281 34.5813 129.729 35.584C130.177 36.5867 130.401 37.7813 130.401 39.168C130.401 40.96 129.975 42.5707 129.121 44C128.268 45.4293 126.935 46.56 125.121 47.392C123.308 48.224 120.961 48.64 118.081 48.64ZM144.242 48.64C142.301 48.64 140.722 48.2667 139.506 47.52C138.312 46.7733 137.437 45.792 136.882 44.576C136.328 43.3387 136.05 41.9947 136.05 40.544V-3.8147e-06H143.218V37.28C143.218 39.008 143.325 40.2667 143.538 41.056C143.752 41.824 144.157 42.3147 144.754 42.528C145.373 42.72 146.29 42.816 147.506 42.816L146.738 48.64H144.242ZM167.403 48.64C163.606 48.64 160.427 47.872 157.867 46.336C155.329 44.8 153.409 42.7733 152.107 40.256C150.827 37.7173 150.187 34.9333 150.187 31.904C150.187 28.9813 150.785 26.2933 151.979 23.84C153.195 21.3653 154.955 19.392 157.259 17.92C159.585 16.4267 162.401 15.68 165.707 15.68C168.609 15.68 171.083 16.2667 173.131 17.44C175.179 18.6133 176.737 20.2347 177.803 22.304C178.891 24.352 179.435 26.6987 179.435 29.344C179.435 29.9413 179.393 30.5707 179.307 31.232C179.243 31.872 179.147 32.5333 179.019 33.216H157.579C157.878 35.5413 158.529 37.3867 159.531 38.752C160.534 40.1173 161.782 41.1093 163.275 41.728C164.769 42.3253 166.379 42.624 168.107 42.624C169.814 42.624 171.457 42.4213 173.035 42.016C174.635 41.5893 176.118 41.0133 177.483 40.288L178.027 46.208C176.811 46.8053 175.307 47.36 173.515 47.872C171.723 48.384 169.686 48.64 167.403 48.64ZM157.899 28.352H172.139C172.139 27.2 171.915 26.1227 171.467 25.12C171.041 24.096 170.347 23.2747 169.387 22.656C168.449 22.016 167.211 21.696 165.675 21.696C163.435 21.696 161.686 22.304 160.427 23.52C159.19 24.736 158.347 26.3467 157.899 28.352ZM197.868 48.64C194.839 48.64 192.226 47.8933 190.028 46.4C187.852 44.9067 186.178 42.912 185.004 40.416C183.831 37.92 183.244 35.1787 183.244 32.192C183.244 29.2267 183.81 26.496 184.94 24C186.071 21.4827 187.724 19.4667 189.9 17.952C192.098 16.4373 194.754 15.68 197.868 15.68C200.13 15.68 202.124 16.096 203.852 16.928C205.602 17.7387 207.095 18.912 208.332 20.448L206.668 21.824V-3.8147e-06H213.804V48H207.18L206.54 42.112L208.556 43.552C207.255 45.1733 205.74 46.432 204.012 47.328C202.284 48.2027 200.236 48.64 197.868 48.64ZM198.988 42.624C200.631 42.624 202.06 42.2187 203.276 41.408C204.492 40.5973 205.442 39.4133 206.124 37.856C206.807 36.2987 207.148 34.4107 207.148 32.192C207.148 30.016 206.807 28.1493 206.124 26.592C205.442 25.0133 204.492 23.808 203.276 22.976C202.06 22.1227 200.631 21.696 198.988 21.696C197.218 21.696 195.703 22.144 194.444 23.04C193.186 23.936 192.215 25.1733 191.532 26.752C190.871 28.3307 190.54 30.144 190.54 32.192C190.54 34.176 190.871 35.9573 191.532 37.536C192.215 39.1147 193.186 40.3627 194.444 41.28C195.703 42.176 197.218 42.624 198.988 42.624Z" fill="#3F51B5"/>
</svg>
