<svg width="271" height="42" viewBox="0 0 271 42" fill="none" xmlns="http://www.w3.org/2000/svg">
<path d="M15.5585 41.8356C11.9847 41.8356 9.08102 41.6438 6.84741 41.2603C4.6138 40.8767 2.96651 40.137 1.90555 39.0411C0.844584 37.9452 0.230341 36.3288 0.0628202 34.1918C-0.1047 32.0548 0.0628203 29.2055 0.565382 25.6438L4.16708 0H14.2183L12.9619 8.9589C13.2411 8.9589 13.7437 8.93151 14.4696 8.87671C15.2514 8.82192 16.1448 8.79452 17.1499 8.79452C18.1551 8.73973 19.1881 8.71233 20.2491 8.71233C21.3659 8.65753 22.371 8.63014 23.2644 8.63014C27.4524 8.63014 30.6074 9.15069 32.7293 10.1918C34.8513 11.2329 36.1914 12.9863 36.7498 15.4521C37.3641 17.863 37.392 21.1233 36.8336 25.2329C36.2752 29.1233 35.4376 32.1918 34.3208 34.4384C33.204 36.6301 31.7801 38.274 30.049 39.3699C28.318 40.411 26.2519 41.0959 23.8508 41.4247C21.4496 41.6986 18.6855 41.8356 15.5585 41.8356ZM16.4798 36.411C18.7693 36.411 20.5562 36.1644 21.8405 35.6712C23.1248 35.1233 24.102 34.0274 24.7721 32.3836C25.498 30.7397 26.1123 28.2192 26.6148 24.8219C27.0057 22.0822 27.0336 19.9452 26.6986 18.411C26.3636 16.8767 25.6376 15.7808 24.5208 15.1233C23.4599 14.4658 21.9243 14.137 19.914 14.137C19.3556 14.137 18.6855 14.137 17.9038 14.137C17.122 14.137 16.3402 14.1644 15.5585 14.2192C14.7767 14.2192 14.0787 14.2466 13.4645 14.3014C12.8502 14.3014 12.4314 14.3014 12.2081 14.3014L10.3653 26.9589C10.0861 28.9863 9.94654 30.6301 9.94654 31.8904C9.94654 33.1507 10.142 34.1096 10.5329 34.7671C10.9237 35.4247 11.5938 35.863 12.5431 36.0822C13.5482 36.3014 14.8605 36.411 16.4798 36.411Z" fill="#3F51B5"/>
<path d="M58.3064 42C55.3468 42 52.7223 41.7808 50.4329 41.3425C48.1993 40.8493 46.3566 40 44.9047 38.7945C43.5087 37.589 42.5315 35.8904 41.9731 33.6986C41.4705 31.4521 41.4426 28.6027 41.8893 25.1507C42.4477 21.5342 43.2853 18.6027 44.4021 16.3562C45.5748 14.1096 47.0266 12.411 48.7577 11.2603C50.5446 10.1096 52.5827 9.34246 54.8722 8.9589C57.2175 8.52055 59.842 8.30137 62.7457 8.30137C65.7052 8.30137 68.3018 8.54795 70.5354 9.0411C72.769 9.47945 74.5838 10.3014 75.9798 11.5068C77.4316 12.7123 78.4088 14.411 78.9114 16.6027C79.414 18.7945 79.414 21.6438 78.9114 25.1507C78.4088 28.8219 77.5992 31.7808 76.4824 34.0274C75.3655 36.2192 73.9416 37.8904 72.2106 39.0411C70.4795 40.1918 68.4414 40.9863 66.0961 41.4247C63.8066 41.8082 61.2101 42 58.3064 42ZM58.8089 36.9863C60.5958 36.9863 62.1314 36.6849 63.4157 36.0822C64.7001 35.4795 65.761 34.3288 66.5986 32.6301C67.4921 30.9315 68.1622 28.4384 68.6089 25.1507C69.1114 21.863 69.1673 19.3699 68.7764 17.6712C68.4414 15.9726 67.6875 14.8219 66.5149 14.2192C65.3981 13.6164 63.9741 13.3151 62.2431 13.3151C60.4562 13.3151 58.8927 13.6164 57.5525 14.2192C56.2682 14.8219 55.1793 15.9726 54.2859 17.6712C53.3924 19.3699 52.6944 21.863 52.1919 25.1507C51.7451 28.4384 51.7172 30.9315 52.1081 32.6301C52.5548 34.3288 53.3366 35.4795 54.4534 36.0822C55.626 36.6849 57.0779 36.9863 58.8089 36.9863Z" fill="#3F51B5"/>
<path d="M99.0355 41.8356C95.4617 41.8356 92.558 41.6438 90.3244 41.2603C88.0908 40.8767 86.4435 40.137 85.3826 39.0411C84.3216 37.9452 83.7074 36.3288 83.5398 34.1918C83.3723 32.0548 83.5398 29.2055 84.0424 25.6438L87.6441 0H97.6953L96.4389 8.9589C96.7181 8.9589 97.2207 8.93151 97.9466 8.87671C98.7284 8.82192 99.6218 8.79452 100.627 8.79452C101.632 8.73973 102.665 8.71233 103.726 8.71233C104.843 8.65753 105.848 8.63014 106.741 8.63014C110.929 8.63014 114.084 9.15069 116.206 10.1918C118.328 11.2329 119.668 12.9863 120.227 15.4521C120.841 17.863 120.869 21.1233 120.311 25.2329C119.752 29.1233 118.915 32.1918 117.798 34.4384C116.681 36.6301 115.257 38.274 113.526 39.3699C111.795 40.411 109.729 41.0959 107.328 41.4247C104.927 41.6986 102.163 41.8356 99.0355 41.8356ZM99.9569 36.411C102.246 36.411 104.033 36.1644 105.318 35.6712C106.602 35.1233 107.579 34.0274 108.249 32.3836C108.975 30.7397 109.589 28.2192 110.092 24.8219C110.483 22.0822 110.511 19.9452 110.176 18.411C109.841 16.8767 109.115 15.7808 107.998 15.1233C106.937 14.4658 105.401 14.137 103.391 14.137C102.833 14.137 102.163 14.137 101.381 14.137C100.599 14.137 99.8173 14.1644 99.0355 14.2192C98.2537 14.2192 97.5557 14.2466 96.9415 14.3014C96.3273 14.3014 95.9085 14.3014 95.6851 14.3014L93.8424 26.9589C93.5632 28.9863 93.4236 30.6301 93.4236 31.8904C93.4236 33.1507 93.619 34.1096 94.0099 34.7671C94.4008 35.4247 95.0709 35.863 96.0201 36.0822C97.0253 36.3014 98.3375 36.411 99.9569 36.411Z" fill="#3F51B5"/>
<path d="M140.392 41.8356C139.22 41.8356 137.879 41.8082 136.372 41.7534C134.864 41.6986 133.384 41.589 131.932 41.4247C130.536 41.2603 129.28 40.9863 128.163 40.6027C127.326 40.3836 126.655 40.137 126.153 39.863C125.65 39.5343 125.315 38.9589 125.148 38.137C125.036 37.2603 125.092 35.9178 125.315 34.1096C126.823 34.7123 128.442 35.2055 130.173 35.589C131.96 35.9178 133.691 36.1644 135.367 36.3288C137.098 36.4384 138.661 36.4932 140.057 36.4932C141.341 36.4932 142.654 36.4658 143.994 36.411C145.39 36.3014 146.702 36.1096 147.931 35.8356C149.215 35.5069 150.276 34.9863 151.113 34.274C152.007 33.5616 152.537 32.6027 152.705 31.3973C152.984 29.8082 152.733 28.7671 151.951 28.274C151.169 27.7808 150.053 27.5343 148.601 27.5343H139.387C137.042 27.5343 134.92 27.4247 133.021 27.2055C131.123 26.9315 129.699 26.1918 128.749 24.9863C127.8 23.7808 127.521 21.7534 127.912 18.9041C128.359 15.7808 129.475 13.4795 131.262 12C133.049 10.4658 135.422 9.45205 138.382 8.9589C141.397 8.46575 144.915 8.21918 148.936 8.21918C150.443 8.21918 152.174 8.24657 154.129 8.30137C156.139 8.35616 157.87 8.52055 159.322 8.79452C160.83 8.9589 162.002 9.20548 162.84 9.53424C163.733 9.80822 164.348 10.274 164.683 10.9315C165.018 11.589 165.074 12.5479 164.85 13.8082L164.515 15.863C164.236 15.3151 163.454 14.9041 162.17 14.6301C160.941 14.3014 159.434 14.0822 157.647 13.9726C155.916 13.8082 154.073 13.726 152.119 13.726C150.22 13.6712 148.461 13.6438 146.842 13.6438C145.39 13.6438 144.022 13.7534 142.737 13.9726C141.453 14.137 140.392 14.5479 139.555 15.2055C138.717 15.8082 138.186 16.8493 137.963 18.3288C137.796 19.4247 137.907 20.2466 138.298 20.7945C138.689 21.2877 139.303 21.6164 140.141 21.7808C140.978 21.8904 141.928 21.9452 142.989 21.9452H152.872C155.162 21.9452 157.144 22.137 158.819 22.5205C160.495 22.9041 161.723 23.7534 162.505 25.0685C163.287 26.3288 163.482 28.3562 163.091 31.1507C162.644 34.3288 161.388 36.6849 159.322 38.2192C157.312 39.6986 154.687 40.6849 151.449 41.1781C148.21 41.6164 144.524 41.8356 140.392 41.8356Z" fill="#3F51B5"/>
<path d="M177.175 41.8356C173.713 41.8356 171.311 41.2329 169.971 40.0274C168.631 38.7671 168.184 36.5753 168.631 33.4521L172.903 3.86301C173.07 2.82191 173.294 2.02739 173.573 1.47945C173.852 0.931505 174.271 0.547943 174.829 0.328762C175.444 0.109587 176.281 0 177.342 0H183.876C183.82 0.164381 183.708 0.684928 183.54 1.56164C183.373 2.43835 183.178 3.45205 182.954 4.60274L179.017 32.2192C178.738 34.1918 178.766 35.6164 179.101 36.4932C179.492 37.3151 180.386 37.726 181.782 37.726C182.228 37.726 182.759 37.6712 183.373 37.5616C183.987 37.4521 184.378 37.3699 184.546 37.3151L184.043 41.0959C183.652 41.1507 182.954 41.2877 181.949 41.5069C180.944 41.726 179.352 41.8356 177.175 41.8356Z" fill="#3F51B5"/>
<path d="M205.829 42C202.143 42 199.128 41.7808 196.782 41.3425C194.437 40.8493 192.622 40.0274 191.338 38.8767C190.11 37.6712 189.356 36 189.077 33.863C188.797 31.726 188.881 29.0137 189.328 25.726C189.998 21.3973 191.087 18 192.594 15.5342C194.102 13.0137 196.364 11.2055 199.379 10.1096C202.394 9.0137 206.471 8.46575 211.608 8.46575C217.583 8.46575 221.659 9.50685 223.837 11.589C226.015 13.6164 226.797 16.8219 226.182 21.2055L225.345 26.9589H201.976C202.087 25.9726 202.422 25.1507 202.981 24.4932C203.539 23.7808 204.433 23.4247 205.661 23.4247H216.717L216.969 21.4521C217.304 18.8767 216.997 16.9589 216.047 15.6986C215.154 14.3836 213.311 13.726 210.519 13.726C208.174 13.726 206.275 14.0548 204.823 14.7123C203.427 15.3699 202.339 16.5479 201.557 18.2466C200.775 19.8904 200.133 22.3288 199.63 25.5616C199.239 28.5205 199.239 30.7671 199.63 32.3014C200.021 33.8356 200.943 34.8767 202.394 35.4247C203.846 35.9178 205.94 36.1644 208.676 36.1644C209.682 36.1644 210.938 36.137 212.446 36.0822C214.009 36.0274 215.601 35.9726 217.22 35.9178C218.839 35.8082 220.263 35.6986 221.492 35.589C222.72 35.4247 223.53 35.2877 223.921 35.1781L223.753 36.4932C223.697 37.1507 223.474 37.863 223.083 38.6301C222.692 39.3425 222.05 39.9178 221.157 40.3562C219.984 41.0137 218.141 41.4521 215.629 41.6712C213.116 41.8904 209.849 42 205.829 42Z" fill="#3F51B5"/>
<path d="M246.291 41.6712C241.935 41.6712 238.529 41.2055 236.072 40.274C233.671 39.2877 232.079 37.6164 231.298 35.2603C230.572 32.8493 230.488 29.4521 231.046 25.0685C231.716 20.6301 232.833 17.2329 234.397 14.8767C235.96 12.4658 237.998 10.7945 240.511 9.86301C243.08 8.87671 246.123 8.38356 249.641 8.38356C250.646 8.38356 251.791 8.43835 253.075 8.54794C254.36 8.65753 255.616 8.82192 256.845 9.0411C258.073 9.20548 259.134 9.42466 260.027 9.69863C260.977 9.91781 261.647 10.1644 262.038 10.4384L259.357 11.5068L260.949 0H271L267.398 24.9863C266.84 28.7671 266.086 31.7808 265.137 34.0274C264.243 36.2192 263.015 37.863 261.451 38.9589C259.888 40.0548 257.878 40.7945 255.421 41.1781C252.964 41.5069 249.92 41.6712 246.291 41.6712ZM247.547 36.411C249.278 36.411 250.702 36.274 251.819 36C252.936 35.6712 253.829 35.1507 254.499 34.4384C255.225 33.726 255.784 32.7123 256.174 31.3973C256.565 30.0274 256.9 28.3014 257.18 26.2192L258.771 14.4658C258.38 14.411 257.794 14.3836 257.012 14.3836C256.23 14.3288 255.421 14.274 254.583 14.2192C253.745 14.1644 252.936 14.137 252.154 14.137C249.864 14.137 247.994 14.4384 246.542 15.0411C245.09 15.589 243.945 16.6575 243.108 18.2466C242.326 19.8356 241.712 22.1644 241.265 25.2329C240.874 28.3014 240.79 30.6301 241.014 32.2192C241.293 33.8082 241.963 34.9041 243.024 35.5069C244.141 36.1096 245.649 36.411 247.547 36.411Z" fill="#3F51B5"/>
</svg>
