<svg width="221" height="51" viewBox="0 0 221 51" fill="none" xmlns="http://www.w3.org/2000/svg">
<path d="M0 49.4012V3.29341H15.7754C20.0349 3.29341 23.2954 4.23753 25.5569 6.12575C27.8403 7.99202 28.982 10.7804 28.982 14.491C28.982 17.1258 28.4002 19.3872 27.2365 21.2755C26.0729 23.1637 24.3273 24.4591 22 25.1617L22.5599 23.8773C25.9631 24.514 28.5539 25.8643 30.3323 27.9281C32.1108 29.992 33 32.7695 33 36.2605C33 40.3443 31.6826 43.5609 29.0479 45.9102C26.4132 48.2375 22.7904 49.4012 18.1796 49.4012H0ZM7.17964 42.9461H17.3563C19.7934 42.9461 21.7365 42.3862 23.1856 41.2665C24.6567 40.1248 25.3922 38.2914 25.3922 35.7665C25.3922 33.022 24.6347 31.1228 23.1198 30.0689C21.6267 28.993 19.7056 28.4551 17.3563 28.4551H7.17964V42.9461ZM7.17964 22H14.7874C16.9391 22 18.6297 21.5719 19.8593 20.7156C21.1108 19.8373 21.7365 18.2236 21.7365 15.8743C21.7365 13.503 21.1108 11.8892 19.8593 11.0329C18.6297 10.1547 16.9391 9.71557 14.7874 9.71557H7.17964V22Z" fill="#3F51B5"/>
<path d="M53.5427 50.0599C50.0956 50.0599 47.1425 49.3024 44.6834 47.7874C42.2463 46.2505 40.38 44.2086 39.0846 41.6617C37.8111 39.0928 37.1744 36.2605 37.1744 33.1647C37.1744 30.0469 37.8111 27.2036 39.0846 24.6347C40.38 22.0659 42.2463 20.024 44.6834 18.509C47.1425 16.9721 50.0956 16.2036 53.5427 16.2036C57.0117 16.2036 59.9648 16.9721 62.4019 18.509C64.861 20.024 66.7273 22.0659 68.0007 24.6347C69.2962 27.2036 69.9439 30.0469 69.9439 33.1647C69.9439 36.2605 69.2962 39.0928 68.0007 41.6617C66.7273 44.2086 64.861 46.2505 62.4019 47.7874C59.9648 49.3024 57.0117 50.0599 53.5427 50.0599ZM53.5427 44.1647C56.5726 44.1647 58.889 43.1767 60.4918 41.2006C62.1165 39.2246 62.9289 36.5459 62.9289 33.1647C62.9289 29.7615 62.1165 27.0609 60.4918 25.0629C58.889 23.0649 56.5726 22.0659 53.5427 22.0659C50.5566 22.0659 48.2512 23.0649 46.6265 25.0629C45.0017 27.0609 44.1894 29.7615 44.1894 33.1647C44.1894 36.5459 45.0017 39.2246 46.6265 41.2006C48.2512 43.1767 50.5566 44.1647 53.5427 44.1647Z" fill="#3F51B5"/>
<path d="M92.5099 50.0599C90.1386 50.0599 87.954 49.5769 85.956 48.6108C83.958 47.6447 82.3882 46.2505 81.2464 44.4281L83.1237 43.0779L82.3003 49.4012H76.0099V0H82.8931V22.7904L81.3452 21.7365C82.5967 20.0898 84.1886 18.7615 86.1207 17.7515C88.0528 16.7415 90.1826 16.2365 92.5099 16.2365C95.6057 16.2365 98.2404 17.0269 100.414 18.6078C102.61 20.1667 104.278 22.2305 105.42 24.7994C106.584 27.3683 107.166 30.1567 107.166 33.1647C107.166 36.2605 106.551 39.0928 105.321 41.6617C104.092 44.2086 102.379 46.2505 100.184 47.7874C97.9879 49.3024 95.4301 50.0599 92.5099 50.0599ZM91.5878 44.1647C93.3662 44.1647 94.8921 43.6816 96.1656 42.7156C97.4391 41.7495 98.4161 40.4321 99.0967 38.7635C99.7774 37.0948 100.118 35.2285 100.118 33.1647C100.118 31.0349 99.7774 29.1467 99.0967 27.5C98.4161 25.8313 97.4391 24.525 96.1656 23.5808C94.8921 22.6148 93.3662 22.1317 91.5878 22.1317C89.7874 22.1317 88.2065 22.5599 86.8452 23.4162C85.5059 24.2725 84.452 25.524 83.6836 27.1707C82.9151 28.7954 82.5309 30.7934 82.5309 33.1647C82.5309 35.5798 82.9151 37.5998 83.6836 39.2246C84.452 40.8493 85.5059 42.0788 86.8452 42.9132C88.2065 43.7475 89.7874 44.1647 91.5878 44.1647Z" fill="#3F51B5"/>
<path d="M122.514 50.0599C119.946 50.0599 117.75 49.7745 115.928 49.2036C114.105 48.6327 112.601 48.0289 111.416 47.3922L112.14 41.1347C113.26 41.9032 114.676 42.6497 116.389 43.3743C118.123 44.0769 120.077 44.4281 122.251 44.4281C124.139 44.4281 125.577 44.1208 126.565 43.506C127.575 42.8693 128.08 41.9361 128.08 40.7066C128.08 39.6966 127.784 38.8842 127.191 38.2695C126.598 37.6327 125.819 37.1058 124.853 36.6886C123.887 36.2715 122.866 35.8872 121.79 35.5359C120.099 34.987 118.496 34.3503 116.982 33.6258C115.488 32.9012 114.27 31.9351 113.326 30.7276C112.404 29.498 111.943 27.8733 111.943 25.8533C111.943 24.0968 112.382 22.483 113.26 21.012C114.138 19.5409 115.467 18.3772 117.245 17.521C119.045 16.6427 121.329 16.2036 124.095 16.2036C126.203 16.2036 127.992 16.4341 129.464 16.8952C130.957 17.3343 132.285 17.8613 133.449 18.476L132.724 24.5689C131.56 23.6687 130.298 22.9222 128.937 22.3293C127.597 21.7146 126.027 21.4072 124.227 21.4072C122.558 21.4072 121.23 21.7365 120.242 22.3952C119.254 23.0319 118.76 24.009 118.76 25.3264C118.76 26.7315 119.342 27.7525 120.505 28.3892C121.669 29.026 123.481 29.7615 125.94 30.5958C127.059 30.9691 128.157 31.4192 129.233 31.9461C130.309 32.4511 131.286 33.0659 132.164 33.7904C133.064 34.515 133.778 35.4152 134.305 36.491C134.832 37.5669 135.095 38.8513 135.095 40.3443C135.095 42.0569 134.678 43.6487 133.844 45.1198C133.031 46.5908 131.703 47.7874 129.859 48.7096C128.036 49.6098 125.588 50.0599 122.514 50.0599Z" fill="#3F51B5"/>
<path d="M149.354 50.0599C147.334 50.0599 145.709 49.6757 144.479 48.9072C143.25 48.1387 142.35 47.1397 141.779 45.9102C141.23 44.6587 140.955 43.3303 140.955 41.9252V0H147.839V38.5329C147.839 40.3333 147.949 41.6617 148.168 42.518C148.41 43.3523 148.86 43.8902 149.518 44.1317C150.199 44.3733 151.198 44.494 152.515 44.494L151.725 50.0599H149.354Z" fill="#3F51B5"/>
<path d="M172.815 50.0599C168.929 50.0599 165.679 49.2804 163.067 47.7216C160.454 46.1407 158.478 44.0549 157.139 41.4641C155.821 38.8513 155.162 35.997 155.162 32.9012C155.162 29.8932 155.777 27.1268 157.007 24.6018C158.258 22.0769 160.07 20.0569 162.441 18.5419C164.834 17.005 167.721 16.2365 171.103 16.2365C173.979 16.2365 176.471 16.8184 178.579 17.982C180.686 19.1457 182.3 20.7705 183.42 22.8563C184.562 24.9421 185.133 27.3792 185.133 30.1677C185.133 30.7385 185.1 31.3313 185.034 31.9461C184.99 32.5609 184.902 33.2086 184.77 33.8892H162.276C162.562 36.4581 163.242 38.5 164.318 40.015C165.394 41.508 166.733 42.5729 168.336 43.2096C169.939 43.8463 171.673 44.1647 173.54 44.1647C175.208 44.1647 176.855 43.978 178.48 43.6048C180.105 43.2096 181.631 42.6497 183.058 41.9252L183.683 47.5569C182.432 48.1497 180.895 48.7206 179.073 49.2695C177.25 49.7964 175.164 50.0599 172.815 50.0599ZM162.671 29.1796H178.085C178.085 27.8842 177.843 26.7096 177.36 25.6557C176.877 24.5798 176.109 23.7236 175.055 23.0868C174.023 22.4501 172.683 22.1317 171.037 22.1317C168.622 22.1317 166.744 22.7685 165.405 24.0419C164.088 25.3154 163.176 27.0279 162.671 29.1796Z" fill="#3F51B5"/>
<path d="M204.18 50.0599C201.194 50.0599 198.581 49.3024 196.341 47.7874C194.102 46.2505 192.356 44.2086 191.105 41.6617C189.875 39.1148 189.261 36.2934 189.261 33.1976C189.261 30.1896 189.842 27.4012 191.006 24.8323C192.192 22.2415 193.893 20.1667 196.111 18.6078C198.35 17.0269 201.04 16.2365 204.18 16.2365C206.441 16.2365 208.505 16.6757 210.371 17.5539C212.238 18.4321 213.807 19.7605 215.081 21.5389L213.5 22.7575V0H220.383V49.4012H214.093L213.27 43.0779L215.147 44.4281C213.961 46.2505 212.435 47.6447 210.569 48.6108C208.703 49.5769 206.573 50.0599 204.18 50.0599ZM205.3 44.1647C206.924 44.1647 208.395 43.7585 209.713 42.9461C211.052 42.1337 212.106 40.9152 212.874 39.2904C213.665 37.6657 214.06 35.6347 214.06 33.1976C214.06 30.8703 213.665 28.8832 212.874 27.2365C212.106 25.5679 211.052 24.3054 209.713 23.4491C208.395 22.5709 206.924 22.1317 205.3 22.1317C203.411 22.1317 201.787 22.6148 200.425 23.5808C199.086 24.525 198.054 25.8313 197.329 27.5C196.627 29.1467 196.276 31.0459 196.276 33.1976C196.276 35.2615 196.627 37.1278 197.329 38.7964C198.054 40.4431 199.086 41.7495 200.425 42.7156C201.787 43.6816 203.411 44.1647 205.3 44.1647Z" fill="#3F51B5"/>
</svg>
